<?xml version="1.0" encoding="utf-8"?>
<!-- Generator: Adobe Illustrator 26.1.0, SVG Export Plug-In . SVG Version: 6.00 Build 0)  -->
<svg version="1.1" id="Calque_1" xmlns="http://www.w3.org/2000/svg" xmlns:xlink="http://www.w3.org/1999/xlink" x="0px" y="0px"
	 viewBox="0 0 108.8 100.7" style="enable-background:new 0 0 108.8 100.7;" xml:space="preserve">
<style type="text/css">
	.st0{fill:#FFDD15;}
</style>
<path class="st0" d="M100.8,96.8c-1.2,1.2-2.8,1.9-4.4,1.9c-1.6,0-3.2-0.6-4.4-1.9L54.4,59.2L16.7,96.8c-2.4,2.5-6.4,2.5-8.8,0
	c-1.2-1.2-1.8-2.8-1.8-4.4c0-1.6,0.6-3.2,1.8-4.4l37.6-37.6L7.9,12.7c-2.4-2.5-2.4-6.4,0-8.8C9.1,2.6,10.7,2,12.3,2s3.2,0.6,4.4,1.9
	l37.7,37.6L92,3.9c2.4-2.5,6.4-2.5,8.8,0c1.2,1.2,1.8,2.8,1.8,4.4c0,1.6-0.6,3.2-1.8,4.4L63.2,50.3L100.8,88
	C103.3,90.4,103.3,94.4,100.8,96.8z"/>
</svg>
