<?xml version="1.0" encoding="utf-8"?>
<!-- Generator: Adobe Illustrator 26.1.0, SVG Export Plug-In . SVG Version: 6.00 Build 0)  -->
<svg version="1.1" id="Calque_1" xmlns="http://www.w3.org/2000/svg" xmlns:xlink="http://www.w3.org/1999/xlink" x="0px" y="0px"
	 viewBox="0 0 108.8 100.7" style="enable-background:new 0 0 108.8 100.7;" xml:space="preserve">
<style type="text/css">
	.st0{fill:#FFDD15;stroke:#D3B41A;stroke-width:6;stroke-miterlimit:10;}
</style>
<path class="st0" d="M72.1,68c-0.5,0.5-1.1,0.7-1.7,0.7c-0.6,0-1.2-0.2-1.7-0.7L54.4,53.7L40,68c-0.9,1-2.4,1-3.4,0
	C36.2,67.6,36,67,36,66.4c0-0.6,0.2-1.2,0.7-1.7L51,50.4L36.7,36c-0.9-1-0.9-2.4,0-3.4c0.5-0.5,1.1-0.7,1.7-0.7
	c0.6,0,1.2,0.2,1.7,0.7L54.4,47l14.3-14.3c0.9-1,2.4-1,3.4,0c0.5,0.5,0.7,1.1,0.7,1.7c0,0.6-0.2,1.2-0.7,1.7L57.7,50.3l14.3,14.4
	C73,65.6,73,67.1,72.1,68z"/>
</svg>
